
<svg width="1920" height="960" viewBox="0 0 1920 960" fill="none" xmlns="http://www.w3.org/2000/svg">
  <defs>
    <style>
      .t-title { font-family: -apple-system, BlinkMacSystemFont, "Segoe UI", Roboto, "Helvetica Neue", sans-serif; font-size: 26px; font-weight: 700; fill: #ffffff; letter-spacing: -0.025em; }
      .t-sub { font-family: -apple-system, BlinkMacSystemFont, "Segoe UI", Roboto, "Helvetica Neue", sans-serif; font-size: 13px; font-weight: 400; fill: #a1a1aa; line-height: 1.4; }
      .t-kicker { font-family: -apple-system, BlinkMacSystemFont, "Segoe UI", Roboto, "Helvetica Neue", sans-serif; font-size: 12px; font-weight: 600; fill: #71717a; letter-spacing: 0.02em; }
      .t-card-h { font-family: -apple-system, BlinkMacSystemFont, "Segoe UI", Roboto, "Helvetica Neue", sans-serif; font-size: 16px; font-weight: 600; fill: #ffffff; letter-spacing: -0.015em; }
      .t-card-sub { font-family: -apple-system, BlinkMacSystemFont, "Segoe UI", Roboto, "Helvetica Neue", sans-serif; font-size: 12px; font-weight: 400; fill: #71717a; }
      .t-item-title { font-family: -apple-system, BlinkMacSystemFont, "Segoe UI", Roboto, "Helvetica Neue", sans-serif; font-size: 12.5px; font-weight: 600; fill: #f4f4f5; }
      .t-item-desc { font-family: -apple-system, BlinkMacSystemFont, "Segoe UI", Roboto, "Helvetica Neue", sans-serif; font-size: 11.5px; font-weight: 400; fill: #a1a1aa; line-height: 1.35; }
      .t-mono { font-family: ui-monospace, SFMono-Regular, Menlo, Monaco, Consolas, monospace; font-size: 11px; }
      .t-bus { font-family: ui-monospace, SFMono-Regular, Menlo, Monaco, Consolas, monospace; font-size: 10px; font-weight: 500; fill: #a1a1aa; }
      .t-boundary { font-family: -apple-system, BlinkMacSystemFont, "Segoe UI", Roboto, "Helvetica Neue", sans-serif; font-size: 11.5px; font-weight: 600; fill: #a1a1aa; letter-spacing: 0.02em; }
    </style>

    <linearGradient id="cardBg" x1="0" y1="0" x2="0" y2="1">
      <stop offset="0%" stop-color="#14151a" />
      <stop offset="100%" stop-color="#0c0d10" />
    </linearGradient>

    <linearGradient id="boundaryBg" x1="0" y1="0" x2="0" y2="1">
      <stop offset="0%" stop-color="#0f1115" stop-opacity="0.6" />
      <stop offset="100%" stop-color="#08090b" stop-opacity="0.8" />
    </linearGradient>
  </defs>

  <!-- Canvas Background -->
  <rect width="1920" height="960" rx="16" fill="#09090b" stroke="#27272a" stroke-width="1.5" />

  <!-- Subtle Blueprint Coordinate Grid (quiet zinc tone) -->
  <g opacity="0.12" stroke="#27272a" stroke-width="1">
    <line x1="60" y1="0" x2="60" y2="960" /><line x1="120" y1="0" x2="120" y2="960" /><line x1="180" y1="0" x2="180" y2="960" /><line x1="240" y1="0" x2="240" y2="960" /><line x1="300" y1="0" x2="300" y2="960" /><line x1="360" y1="0" x2="360" y2="960" /><line x1="420" y1="0" x2="420" y2="960" /><line x1="480" y1="0" x2="480" y2="960" /><line x1="540" y1="0" x2="540" y2="960" /><line x1="600" y1="0" x2="600" y2="960" /><line x1="660" y1="0" x2="660" y2="960" /><line x1="720" y1="0" x2="720" y2="960" /><line x1="780" y1="0" x2="780" y2="960" /><line x1="840" y1="0" x2="840" y2="960" /><line x1="900" y1="0" x2="900" y2="960" /><line x1="960" y1="0" x2="960" y2="960" /><line x1="1020" y1="0" x2="1020" y2="960" /><line x1="1080" y1="0" x2="1080" y2="960" /><line x1="1140" y1="0" x2="1140" y2="960" /><line x1="1200" y1="0" x2="1200" y2="960" /><line x1="1260" y1="0" x2="1260" y2="960" /><line x1="1320" y1="0" x2="1320" y2="960" /><line x1="1380" y1="0" x2="1380" y2="960" /><line x1="1440" y1="0" x2="1440" y2="960" /><line x1="1500" y1="0" x2="1500" y2="960" /><line x1="1560" y1="0" x2="1560" y2="960" /><line x1="1620" y1="0" x2="1620" y2="960" /><line x1="1680" y1="0" x2="1680" y2="960" /><line x1="1740" y1="0" x2="1740" y2="960" /><line x1="1800" y1="0" x2="1800" y2="960" /><line x1="1860" y1="0" x2="1860" y2="960" />
    <line x1="0" y1="60" x2="1920" y2="60" /><line x1="0" y1="120" x2="1920" y2="120" /><line x1="0" y1="180" x2="1920" y2="180" /><line x1="0" y1="240" x2="1920" y2="240" /><line x1="0" y1="300" x2="1920" y2="300" /><line x1="0" y1="360" x2="1920" y2="360" /><line x1="0" y1="420" x2="1920" y2="420" /><line x1="0" y1="480" x2="1920" y2="480" /><line x1="0" y1="540" x2="1920" y2="540" /><line x1="0" y1="600" x2="1920" y2="600" /><line x1="0" y1="660" x2="1920" y2="660" /><line x1="0" y1="720" x2="1920" y2="720" /><line x1="0" y1="780" x2="1920" y2="780" /><line x1="0" y1="840" x2="1920" y2="840" /><line x1="0" y1="900" x2="1920" y2="900" />
  </g>

  <!-- ========================================================================= -->
  <!-- HEADER ROW                                                                -->
  <!-- ========================================================================= -->
  <g transform="translate(80, 56)">
    <text x="0" y="0" class="t-kicker">Chrono Platform Architecture</text>
    <text x="0" y="30" class="t-title">End-to-End System Topology</text>
    <text x="0" y="54" class="t-sub">High-concurrency data flow across client runtime, MCP agent server, PostgreSQL engine, and media transport.</text>
  </g>

  <!-- Header Right Status Chip -->
  <g transform="translate(1490, 60)">
    <rect x="0" y="0" width="350" height="38" rx="8" fill="#121318" stroke="#27272a" stroke-width="1" />
    <circle cx="20" cy="19" r="4" fill="#10b981" />
    <text x="34" y="23" class="t-mono" fill="#d4d4d8">PostgreSQL 16 / Row Level Security</text>
  </g>

  <!-- ========================================================================= -->
  <!-- PROTECTED DATA PLANE (TENANT BOUNDARY) ENCLOSURE                          -->
  <!-- ========================================================================= -->
  <g transform="translate(950, 160)">
    <rect x="0" y="0" width="890" height="660" rx="12" fill="url(#boundaryBg)" stroke="#27272a" stroke-dasharray="6 6" stroke-width="1.5" />
    
    <!-- Boundary Pill Header -->
    <rect x="24" y="-14" width="240" height="28" rx="6" fill="#18181b" stroke="#27272a" stroke-width="1" />
    <g transform="translate(34, -8)">
      <path d="M15.0595 10.4995C15.3353 10.1905 15.3085 9.71642 14.9995 9.44055C14.6905 9.16467 14.2164 9.19151 13.9405 9.50049L10.9286 12.8739L10.0595 11.9005C9.78358 11.5915 9.30947 11.5647 9.00049 11.8405C8.69151 12.1164 8.66467 12.5905 8.94055 12.8995L10.3691 14.4995C10.5114 14.6589 10.7149 14.75 10.9286 14.75C11.1422 14.75 11.3457 14.6589 11.488 14.4995L15.0595 10.4995Z" fill="currentColor"/><path fill-rule="evenodd" clip-rule="evenodd" d="M12 1.25C11.0625 1.25 10.1673 1.55658 8.72339 2.05112L7.99595 2.30014C6.51462 2.8072 5.3714 3.19852 4.55303 3.53099C4.14078 3.69846 3.78637 3.86067 3.50098 4.02641C3.22634 4.1859 2.95082 4.38484 2.76363 4.65154C2.5786 4.91516 2.48293 5.23924 2.42281 5.55122C2.36031 5.87556 2.32262 6.26464 2.2983 6.71136C2.25 7.59836 2.25 8.81351 2.25 10.3896V11.9914C2.25 18.0924 6.85803 21.0175 9.59833 22.2146L9.62543 22.2264C9.96523 22.3749 10.2846 22.5144 10.6516 22.6084C11.0391 22.7076 11.4507 22.75 12 22.75C12.5493 22.75 12.9609 22.7076 13.3484 22.6084C13.7154 22.5144 14.0348 22.3749 14.3745 22.2264L14.4017 22.2146C17.142 21.0175 21.75 18.0924 21.75 11.9914V10.3898C21.75 8.81361 21.75 7.5984 21.7017 6.71136C21.6774 6.26464 21.6397 5.87556 21.5772 5.55122C21.5171 5.23924 21.4214 4.91516 21.2364 4.65154C21.0492 4.38484 20.7737 4.1859 20.499 4.02641C20.2136 3.86067 19.8592 3.69846 19.447 3.53099C18.6286 3.19852 17.4854 2.8072 16.004 2.30013L15.2766 2.05112C13.8327 1.55658 12.9375 1.25 12 1.25ZM9.08062 3.5143C10.6951 2.96164 11.3423 2.75 12 2.75C12.6577 2.75 13.3049 2.96164 14.9194 3.5143L15.4922 3.71037C17.0048 4.22814 18.1079 4.60605 18.8824 4.92069C19.269 5.07774 19.5491 5.20935 19.7457 5.32353C19.8428 5.3799 19.9097 5.42642 19.9543 5.46273C19.9922 5.49349 20.0066 5.51092 20.0087 5.51348C20.0106 5.5166 20.0231 5.53737 20.0406 5.58654C20.0606 5.64265 20.0827 5.72309 20.1043 5.83506C20.148 6.06169 20.1811 6.37301 20.2039 6.79292C20.2497 7.63411 20.25 8.80833 20.25 10.4167V11.9914C20.25 17.1665 16.3801 19.7135 13.8012 20.84C13.4297 21.0023 13.2152 21.0941 12.9764 21.1552C12.7483 21.2136 12.47 21.25 12 21.25C11.53 21.25 11.2517 21.2136 11.0236 21.1552C10.7848 21.0941 10.5703 21.0023 10.1988 20.84C7.6199 19.7135 3.75 17.1665 3.75 11.9914V10.4167C3.75 8.80833 3.75028 7.63411 3.79608 6.79292C3.81894 6.37301 3.85204 6.06169 3.89571 5.83506C3.91729 5.72309 3.93944 5.64265 3.95943 5.58654C3.97693 5.5374 3.98936 5.51663 3.99129 5.51349C3.99336 5.51095 4.0078 5.49351 4.04567 5.46273C4.09034 5.42642 4.15722 5.3799 4.25429 5.32353C4.4509 5.20935 4.731 5.07774 5.11759 4.92069C5.8921 4.60605 6.99521 4.22814 8.5078 3.71037L9.08062 3.5143Z" fill="currentColor"/>
    </g>
    <text x="64" y="4.5" class="t-boundary">Workspace Tenant Boundary</text>
  </g>

  <!-- ========================================================================= -->
  <!-- CARD 1: PRESENTATION TIER (x: 80, y: 175)                                 -->
  <!-- ========================================================================= -->
  <g transform="translate(80, 175)">
    <rect width="405" height="630" rx="12" fill="url(#cardBg)" stroke="#27272a" stroke-width="1" />
    
    <!-- Card Header -->
    <rect x="22" y="22" width="40" height="40" rx="8" fill="#18181b" stroke="#27272a" stroke-width="1" />
    <g transform="translate(31, 31)">
      <path fill-rule="evenodd" clip-rule="evenodd" d="M12 4.75C10.9396 4.75 10.0907 5.07796 8.06584 5.88789L5.25737 7.01128C4.24694 7.41545 3.54677 7.69659 3.09295 7.93451C3.0486 7.95776 3.00863 7.97959 2.97267 8C3.00863 8.02041 3.0486 8.04224 3.09295 8.06549C3.54677 8.30341 4.24694 8.58455 5.25737 8.98872L8.06584 10.1121C10.0907 10.922 10.9396 11.25 12 11.25C13.0604 11.25 13.9093 10.922 15.9342 10.1121L18.7426 8.98872C19.7531 8.58455 20.4532 8.30341 20.9071 8.06549C20.9514 8.04224 20.9914 8.02041 21.0273 8C20.9914 7.97959 20.9514 7.95776 20.9071 7.93451C20.4532 7.69659 19.7531 7.41545 18.7426 7.01128L15.9342 5.88789C13.9093 5.07796 13.0604 4.75 12 4.75ZM7.62442 4.4489C9.50121 3.69796 10.6208 3.25 12 3.25C13.3792 3.25 14.4988 3.69796 16.3756 4.4489C16.4138 4.4642 16.4524 4.47962 16.4912 4.49517L19.3451 5.6367C20.2996 6.01851 21.0728 6.32776 21.6035 6.60601C21.8721 6.74683 22.1323 6.90648 22.333 7.09894C22.5392 7.29668 22.75 7.59658 22.75 8C22.75 8.40342 22.5392 8.70332 22.333 8.90106C22.1323 9.09352 21.8721 9.25317 21.6035 9.39399C21.2519 9.57835 20.7938 9.77632 20.247 10C20.7938 10.2237 21.2519 10.4216 21.6035 10.606C21.8721 10.7468 22.1323 10.9065 22.333 11.0989C22.5392 11.2967 22.75 11.5966 22.75 12C22.75 12.4034 22.5392 12.7033 22.333 12.9011C22.1323 13.0935 21.8721 13.2532 21.6035 13.394C21.2519 13.5784 20.7938 13.7763 20.247 14C20.7938 14.2237 21.2519 14.4216 21.6035 14.606C21.8721 14.7468 22.1323 14.9065 22.333 15.0989C22.5392 15.2967 22.75 15.5966 22.75 16C22.75 16.4034 22.5392 16.7033 22.333 16.9011C22.1323 17.0935 21.8721 17.2532 21.6035 17.394C21.0728 17.6722 20.2997 17.9815 19.3451 18.3633L16.4912 19.5048C16.4524 19.5204 16.4138 19.5358 16.3756 19.5511C14.4988 20.302 13.3792 20.75 12 20.75C10.6208 20.75 9.50121 20.302 7.62443 19.5511C7.58619 19.5358 7.54763 19.5204 7.50875 19.5048L4.6549 18.3633C3.70034 17.9815 2.9272 17.6722 2.39647 17.394C2.12786 17.2532 1.86765 17.0935 1.66701 16.9011C1.46085 16.7033 1.25 16.4034 1.25 16C1.25 15.5966 1.46085 15.2967 1.66701 15.0989C1.86765 14.9065 2.12786 14.7468 2.39647 14.606C2.74813 14.4216 3.20621 14.2237 3.75299 14C3.20621 13.7763 2.74813 13.5784 2.39647 13.394C2.12786 13.2532 1.86765 13.0935 1.66701 12.9011C1.46085 12.7033 1.25 12.4034 1.25 12C1.25 11.5966 1.46085 11.2967 1.66701 11.0989C1.86765 10.9065 2.12786 10.7468 2.39647 10.606C2.74813 10.4216 3.20621 10.2237 3.75299 10C3.20621 9.77632 2.74813 9.57835 2.39647 9.39399C2.12786 9.25317 1.86765 9.09352 1.66701 8.90106C1.46085 8.70332 1.25 8.40342 1.25 8C1.25 7.59658 1.46085 7.29668 1.66701 7.09894C1.86765 6.90648 2.12786 6.74683 2.39647 6.60601C2.92721 6.32776 3.70037 6.01851 4.65496 5.63669L7.50875 4.49517C7.54763 4.47962 7.58618 4.4642 7.62442 4.4489ZM5.76613 10.8078L5.25737 11.0113C4.24694 11.4154 3.54677 11.6966 3.09295 11.9345C3.0486 11.9578 3.00863 11.9796 2.97268 12C3.00863 12.0204 3.0486 12.0422 3.09295 12.0655C3.54677 12.3034 4.24694 12.5845 5.25737 12.9887L8.06584 14.1121C10.0907 14.922 10.9396 15.25 12 15.25C13.0604 15.25 13.9093 14.922 15.9342 14.1121L18.7426 12.9887C19.7531 12.5845 20.4532 12.3034 20.9071 12.0655C20.9514 12.0422 20.9914 12.0204 21.0273 12C20.9914 11.9796 20.9514 11.9578 20.9071 11.9345C20.4532 11.6966 19.7531 11.4154 18.7426 11.0113L18.2339 10.8078L16.4912 11.5048C16.4524 11.5204 16.4138 11.5358 16.3756 11.5511C14.4988 12.302 13.3792 12.75 12 12.75C10.6208 12.75 9.50121 12.302 7.62443 11.5511C7.58619 11.5358 7.54763 11.5204 7.50875 11.5048L5.76613 10.8078ZM5.76613 14.8078L5.25737 15.0113C4.24694 15.4154 3.54678 15.6966 3.09295 15.9345C3.0486 15.9578 3.00863 15.9796 2.97268 16C3.00863 16.0204 3.0486 16.0422 3.09295 16.0655C3.54677 16.3034 4.24694 16.5845 5.25737 16.9887L8.06584 18.1121C10.0907 18.922 10.9396 19.25 12 19.25C13.0604 19.25 13.9093 18.922 15.9342 18.1121L18.7426 16.9887C19.7531 16.5845 20.4532 16.3034 20.9071 16.0655C20.9514 16.0422 20.9914 16.0204 21.0273 16C20.9914 15.9796 20.9514 15.9578 20.9071 15.9345C20.4532 15.6966 19.7531 15.4154 18.7426 15.0113L18.2339 14.8078L16.4912 15.5048C16.4524 15.5204 16.4138 15.5358 16.3756 15.5511C14.4988 16.302 13.3792 16.75 12 16.75C10.6208 16.75 9.50121 16.302 7.62443 15.5511C7.58619 15.5358 7.54763 15.5204 7.50875 15.5048L5.76613 14.8078Z" fill="currentColor"/>
    </g>
    <text x="74" y="39" class="t-card-h">Presentation Tier</text>
    <text x="74" y="55" class="t-card-sub">Next.js 15 and React 19 Client</text>

    <line x1="22" y1="78" x2="383" y2="78" stroke="#27272a" stroke-width="1" />

    <!-- Feature 1 -->
    <g transform="translate(22, 102)">
      <circle cx="4" cy="6" r="3" fill="#71717a" />
      <text x="18" y="10" class="t-item-title">App Router and Server Actions</text>
      <text x="18" y="27" class="t-item-desc">Type-safe route handlers with strict Zod validation</text>
    </g>

    <!-- Feature 2 -->
    <g transform="translate(22, 162)">
      <circle cx="4" cy="6" r="3" fill="#71717a" />
      <text x="18" y="10" class="t-item-title">Zustand Reactive Store</text>
      <text x="18" y="27" class="t-item-desc">Optimistic client cache and local offline resilience</text>
    </g>

    <!-- Feature 3 -->
    <g transform="translate(22, 222)">
      <circle cx="4" cy="6" r="3" fill="#71717a" />
      <text x="18" y="10" class="t-item-title">Reicon Vector Icon System</text>
      <text x="18" y="27" class="t-item-desc">2,600+ tree-shaken geometric SVG icons</text>
    </g>

    <!-- Feature 4 -->
    <g transform="translate(22, 282)">
      <circle cx="4" cy="6" r="3" fill="#71717a" />
      <text x="18" y="10" class="t-item-title">Keyboard Navigation Engine</text>
      <text x="18" y="27" class="t-item-desc">Global Cmd+K command palette and ticket hotkeys</text>
    </g>

    <!-- Feature 5 -->
    <g transform="translate(22, 342)">
      <circle cx="4" cy="6" r="3" fill="#71717a" />
      <text x="18" y="10" class="t-item-title">Productivity Workspaces</text>
      <text x="18" y="27" class="t-item-desc">Interactive Kanban, Eisenhower matrix, and Pomodoro</text>
    </g>

    <!-- Feature 6 -->
    <g transform="translate(22, 402)">
      <circle cx="4" cy="6" r="3" fill="#71717a" />
      <text x="18" y="10" class="t-item-title">Hardware-Throttled WebGL</text>
      <text x="18" y="27" class="t-item-desc">Ambient Silk shader canvas with low-power 24 FPS lock</text>
    </g>

    <!-- Bottom Specs Footer -->
    <rect x="22" y="566" width="361" height="40" rx="6" fill="#121318" stroke="#27272a" stroke-width="1" />
    <text x="36" y="591" class="t-mono" fill="#a1a1aa">Next.js 15 / Turbopack / Zustand / Reicon</text>
  </g>

  <!-- CONNECTOR 1: Client -> Edge -->
  <g transform="translate(485, 485)">
    <line x1="0" y1="0" x2="38" y2="0" stroke="#3f3f46" stroke-width="1.5" stroke-dasharray="4 3" />
    <polygon points="38,-4 45,0 38,4" fill="#71717a" />
    
    <rect x="-2" y="-24" width="48" height="18" rx="4" fill="#18181b" stroke="#27272a" stroke-width="1" />
    <text x="4" y="-12" class="t-bus">RPC</text>
  </g>

  <!-- ========================================================================= -->
  <!-- CARD 2: EDGE INTELLIGENCE & MCP (x: 535, y: 175)                          -->
  <!-- ========================================================================= -->
  <g transform="translate(535, 175)">
    <rect width="405" height="630" rx="12" fill="url(#cardBg)" stroke="#27272a" stroke-width="1" />
    
    <!-- Card Header -->
    <rect x="22" y="22" width="40" height="40" rx="8" fill="#18181b" stroke="#27272a" stroke-width="1" />
    <g transform="translate(31, 31)">
      <path fill-rule="evenodd" clip-rule="evenodd" d="M9 1.25C9.41421 1.25 9.75 1.58579 9.75 2V3.26272C10.216 3.25376 10.7154 3.25111 11.25 3.25032V2C11.25 1.58579 11.5858 1.25 12 1.25C12.4142 1.25 12.75 1.58579 12.75 2V3.25032C13.2846 3.25111 13.784 3.25376 14.25 3.26272V2C14.25 1.58579 14.5858 1.25 15 1.25C15.4142 1.25 15.75 1.58579 15.75 2V3.32709C16.0099 3.34691 16.2561 3.37182 16.489 3.40313C17.6614 3.56076 18.6104 3.89288 19.3588 4.64124C20.1071 5.38961 20.4392 6.33855 20.5969 7.51098C20.6282 7.7439 20.6531 7.99006 20.6729 8.25H22C22.4142 8.25 22.75 8.58579 22.75 9C22.75 9.41421 22.4142 9.75 22 9.75H20.7373C20.7462 10.216 20.7489 10.7154 20.7497 11.25H22C22.4142 11.25 22.75 11.5858 22.75 12C22.75 12.4142 22.4142 12.75 22 12.75H20.7497C20.7489 13.2846 20.7462 13.784 20.7373 14.25H22C22.4142 14.25 22.75 14.5858 22.75 15C22.75 15.4142 22.4142 15.75 22 15.75H20.6729C20.6531 16.0099 20.6282 16.2561 20.5969 16.489C20.4392 17.6614 20.1071 18.6104 19.3588 19.3588C18.6104 20.1071 17.6614 20.4392 16.489 20.5969C16.2561 20.6282 16.0099 20.6531 15.75 20.6729V22C15.75 22.4142 15.4142 22.75 15 22.75C14.5858 22.75 14.25 22.4142 14.25 22V20.7373C13.784 20.7462 13.2846 20.7489 12.75 20.7497V22C12.75 22.4142 12.4142 22.75 12 22.75C11.5858 22.75 11.25 22.4142 11.25 22V20.7497C10.7154 20.7489 10.216 20.7462 9.75 20.7373V22C9.75 22.4142 9.41421 22.75 9 22.75C8.58579 22.75 8.25 22.4142 8.25 22V20.6729C7.99006 20.6531 7.7439 20.6282 7.51098 20.5969C6.33855 20.4392 5.38961 20.1071 4.64124 19.3588C3.89288 18.6104 3.56076 17.6614 3.40313 16.489C3.37182 16.2561 3.34691 16.0099 3.32709 15.75H2C1.58579 15.75 1.25 15.4142 1.25 15C1.25 14.5858 1.58579 14.25 2 14.25H3.26272C3.25376 13.784 3.25111 13.2846 3.25032 12.75H2C1.58579 12.75 1.25 12.4142 1.25 12C1.25 11.5858 1.58579 11.25 2 11.25H3.25032C3.25111 10.7154 3.25376 10.216 3.26272 9.75H2C1.58579 9.75 1.25 9.41421 1.25 9C1.25 8.58579 1.58579 8.25 2 8.25H3.32709C3.34691 7.99006 3.37182 7.7439 3.40313 7.51098C3.56076 6.33855 3.89288 5.38961 4.64124 4.64124C5.38961 3.89288 6.33855 3.56076 7.51098 3.40313C7.7439 3.37182 7.99006 3.34691 8.25 3.32709V2C8.25 1.58579 8.58579 1.25 9 1.25ZM7.71085 4.88976C6.70476 5.02502 6.12511 5.27869 5.7019 5.7019C5.27869 6.12511 5.02502 6.70476 4.88976 7.71085C4.75159 8.73851 4.75 10.0932 4.75 12C4.75 13.9068 4.75159 15.2615 4.88976 16.2892C5.02502 17.2952 5.27869 17.8749 5.7019 18.2981C6.12511 18.7213 6.70476 18.975 7.71085 19.1102C8.73851 19.2484 10.0932 19.25 12 19.25C13.9068 19.25 15.2615 19.2484 16.2892 19.1102C17.2952 18.975 17.8749 18.7213 18.2981 18.2981C18.7213 17.8749 18.975 17.2952 19.1102 16.2892C19.2484 15.2615 19.25 13.9068 19.25 12C19.25 10.0932 19.2484 8.73851 19.1102 7.71085C18.975 6.70476 18.7213 6.12511 18.2981 5.7019C17.8749 5.27869 17.2952 5.02502 16.2892 4.88976C15.2615 4.75159 13.9068 4.75 12 4.75C10.0932 4.75 8.73851 4.75159 7.71085 4.88976ZM9.95063 6.25H14.0494C14.7142 6.24996 15.2871 6.24993 15.7458 6.31161C16.2375 6.3777 16.7087 6.52676 17.091 6.90901C17.4732 7.29126 17.6223 7.76252 17.6884 8.25416C17.7501 8.7129 17.75 9.28576 17.75 9.95063V14.0494C17.75 14.7142 17.7501 15.2871 17.6884 15.7458C17.6223 16.2375 17.4732 16.7087 17.091 17.091C16.7087 17.4732 16.2375 17.6223 15.7458 17.6884C15.2871 17.7501 14.7142 17.75 14.0494 17.75H9.95063C9.28576 17.75 8.7129 17.7501 8.25416 17.6884C7.76252 17.6223 7.29126 17.4732 6.90901 17.091C6.52676 16.7087 6.3777 16.2375 6.31161 15.7458C6.24993 15.2871 6.24996 14.7142 6.25 14.0494V9.95063C6.24996 9.28576 6.24993 8.7129 6.31161 8.25416C6.3777 7.76252 6.52676 7.29126 6.90901 6.90901C7.29126 6.52676 7.76252 6.3777 8.25416 6.31161C8.7129 6.24993 9.28576 6.24996 9.95063 6.25ZM8.45403 7.79823C8.12872 7.84197 8.02676 7.91258 7.96967 7.96967C7.91258 8.02676 7.84197 8.12872 7.79823 8.45403C7.75159 8.80091 7.75 9.27169 7.75 10V14C7.75 14.7283 7.75159 15.1991 7.79823 15.546C7.84197 15.8713 7.91258 15.9732 7.96967 16.0303C8.02676 16.0874 8.12872 16.158 8.45403 16.2018C8.80091 16.2484 9.27169 16.25 10 16.25H14C14.7283 16.25 15.1991 16.2484 15.546 16.2018C15.8713 16.158 15.9732 16.0874 16.0303 16.0303C16.0874 15.9732 16.158 15.8713 16.2018 15.546C16.2484 15.1991 16.25 14.7283 16.25 14V10C16.25 9.27169 16.2484 8.80091 16.2018 8.45403C16.158 8.12872 16.0874 8.02676 16.0303 7.96967C15.9732 7.91258 15.8713 7.84197 15.546 7.79823C15.1991 7.75159 14.7283 7.75 14 7.75H10C9.27169 7.75 8.80091 7.75159 8.45403 7.79823Z" fill="currentColor"/>
    </g>
    <text x="74" y="39" class="t-card-h">Edge Protocol &amp; AI</text>
    <text x="74" y="55" class="t-card-sub">MCP Server and Multi-LLM Gateway</text>

    <line x1="22" y1="78" x2="383" y2="78" stroke="#27272a" stroke-width="1" />

    <!-- Feature 1 -->
    <g transform="translate(22, 102)">
      <circle cx="4" cy="6" r="3" fill="#71717a" />
      <text x="18" y="10" class="t-item-title">Embedded MCP Server</text>
      <text x="18" y="27" class="t-item-desc">stdio JSON-RPC bridge for Claude Code and Cursor</text>
    </g>

    <!-- Feature 2 -->
    <g transform="translate(22, 162)">
      <circle cx="4" cy="6" r="3" fill="#71717a" />
      <text x="18" y="10" class="t-item-title">Multi-Provider LLM Router</text>
      <text x="18" y="27" class="t-item-desc">Dynamic fallback across Gemini 2.5, Groq, and OpenAI</text>
    </g>

    <!-- Feature 3 -->
    <g transform="translate(22, 222)">
      <circle cx="4" cy="6" r="3" fill="#71717a" />
      <text x="18" y="10" class="t-item-title">Markdown Roadmap Parser</text>
      <text x="18" y="27" class="t-item-desc">Automated ingestion of project specs and issue trees</text>
    </g>

    <!-- Feature 4 -->
    <g transform="translate(22, 282)">
      <circle cx="4" cy="6" r="3" fill="#71717a" />
      <text x="18" y="10" class="t-item-title">Real-Time Event Dispatcher</text>
      <text x="18" y="27" class="t-item-desc">Workspace state changes and collaborator notifications</text>
    </g>

    <!-- Feature 5 -->
    <g transform="translate(22, 342)">
      <circle cx="4" cy="6" r="3" fill="#71717a" />
      <text x="18" y="10" class="t-item-title">Native Internationalization</text>
      <text x="18" y="27" class="t-item-desc">Synchronized 5-language dictionary (EN, IT, DE, FR, RU)</text>
    </g>

    <!-- Feature 6 -->
    <g transform="translate(22, 402)">
      <circle cx="4" cy="6" r="3" fill="#71717a" />
      <text x="18" y="10" class="t-item-title">Audited Logic Boundaries</text>
      <text x="18" y="27" class="t-item-desc">Finite-state workflows with zero unverified mutations</text>
    </g>

    <!-- Bottom Specs Footer -->
    <rect x="22" y="566" width="361" height="40" rx="6" fill="#121318" stroke="#27272a" stroke-width="1" />
    <text x="36" y="591" class="t-mono" fill="#a1a1aa">MCP stdio / Gemini 2.5 / Groq / JSON-RPC</text>
  </g>

  <!-- CONNECTOR 2: Edge -> Data Plane -->
  <g transform="translate(940, 485)">
    <line x1="0" y1="0" x2="30" y2="0" stroke="#3f3f46" stroke-width="1.5" stroke-dasharray="4 3" />
    <polygon points="30,-4 37,0 30,4" fill="#71717a" />
    
    <rect x="-4" y="-24" width="46" height="18" rx="4" fill="#18181b" stroke="#27272a" stroke-width="1" />
    <text x="2" y="-12" class="t-bus">QUERY</text>
  </g>

  <!-- ========================================================================= -->
  <!-- CARD 3: DATABASE & ACCESS MESH (x: 980, y: 195)                           -->
  <!-- ========================================================================= -->
  <g transform="translate(980, 195)">
    <rect width="405" height="595" rx="12" fill="url(#cardBg)" stroke="#27272a" stroke-width="1" />
    
    <!-- Card Header -->
    <rect x="22" y="22" width="40" height="40" rx="8" fill="#18181b" stroke="#27272a" stroke-width="1" />
    <g transform="translate(31, 31)">
      <path fill-rule="evenodd" clip-rule="evenodd" d="M3.25 6C3.25 4.45831 4.48029 3.26447 6.00774 2.50075C7.58004 1.7146 9.69967 1.25 12 1.25C14.3003 1.25 16.42 1.7146 17.9923 2.50075C19.5197 3.26447 20.75 4.45831 20.75 6V18C20.75 19.5417 19.5197 20.7355 17.9923 21.4992C16.42 22.2854 14.3003 22.75 12 22.75C9.69967 22.75 7.58004 22.2854 6.00774 21.4992C4.48029 20.7355 3.25 19.5417 3.25 18V6ZM4.75 6C4.75 5.33255 5.31057 4.52639 6.67856 3.84239C8.00168 3.18083 9.88205 2.75 12 2.75C14.118 2.75 15.9983 3.18083 17.3214 3.84239C18.6894 4.52639 19.25 5.33255 19.25 6C19.25 6.66745 18.6894 7.47361 17.3214 8.15761C15.9983 8.81917 14.118 9.25 12 9.25C9.88205 9.25 8.00168 8.81917 6.67856 8.15761C5.31057 7.47361 4.75 6.66745 4.75 6ZM4.75 18C4.75 18.6674 5.31057 19.4736 6.67856 20.1576C8.00168 20.8192 9.88205 21.25 12 21.25C14.118 21.25 15.9983 20.8192 17.3214 20.1576C18.6894 19.4736 19.25 18.6674 19.25 18V14.7072C18.8733 15.0077 18.4459 15.2724 17.9923 15.4992C16.42 16.2854 14.3003 16.75 12 16.75C9.69967 16.75 7.58004 16.2854 6.00774 15.4992C5.55414 15.2724 5.12675 15.0077 4.75 14.7072V18ZM19.25 8.70722V12C19.25 12.6674 18.6894 13.4736 17.3214 14.1576C15.9983 14.8192 14.118 15.25 12 15.25C9.88205 15.25 8.00168 14.8192 6.67856 14.1576C5.31057 13.4736 4.75 12.6674 4.75 12V8.70722C5.12675 9.00772 5.55414 9.27245 6.00774 9.49925C7.58004 10.2854 9.69967 10.75 12 10.75C14.3003 10.75 16.42 10.2854 17.9923 9.49925C18.4459 9.27245 18.8733 9.00772 19.25 8.70722Z" fill="currentColor"/>
    </g>
    <text x="74" y="39" class="t-card-h">Relational Core &amp; RLS</text>
    <text x="74" y="55" class="t-card-sub">PostgreSQL 16 and Supabase Engine</text>

    <line x1="22" y1="78" x2="383" y2="78" stroke="#27272a" stroke-width="1" />

    <!-- Feature 1 -->
    <g transform="translate(22, 102)">
      <circle cx="4" cy="6" r="3" fill="#10b981" />
      <text x="18" y="10" class="t-item-title">Multi-Tenant Row Level Security</text>
      <text x="18" y="27" class="t-item-desc">Cryptographic tenant isolation across all tables</text>
    </g>

    <!-- Feature 2 -->
    <g transform="translate(22, 162)">
      <circle cx="4" cy="6" r="3" fill="#10b981" />
      <text x="18" y="10" class="t-item-title">Realtime WebSocket CDC</text>
      <text x="18" y="27" class="t-item-desc">Direct WAL stream for task and milestone changes</text>
    </g>

    <!-- Feature 3 -->
    <g transform="translate(22, 222)">
      <circle cx="4" cy="6" r="3" fill="#10b981" />
      <text x="18" y="10" class="t-item-title">Tokenized Workspace Access</text>
      <text x="18" y="27" class="t-item-desc">Signed invitation tokens with strict membership checks</text>
    </g>

    <!-- Feature 4 -->
    <g transform="translate(22, 282)">
      <circle cx="4" cy="6" r="3" fill="#10b981" />
      <text x="18" y="10" class="t-item-title">OAuth and Identity Federation</text>
      <text x="18" y="27" class="t-item-desc">Unified authentication via GitHub, Google, and Magic Link</text>
    </g>

    <!-- Feature 5 -->
    <g transform="translate(22, 342)">
      <circle cx="4" cy="6" r="3" fill="#10b981" />
      <text x="18" y="10" class="t-item-title">Immutable Activity Ledger</text>
      <text x="18" y="27" class="t-item-desc">Complete audit chronogram tracking all entity mutations</text>
    </g>

    <!-- Feature 6 -->
    <g transform="translate(22, 402)">
      <circle cx="4" cy="6" r="3" fill="#10b981" />
      <text x="18" y="10" class="t-item-title">Declarative Migrations</text>
      <text x="18" y="27" class="t-item-desc">Supabase CLI pipeline with automated schema versioning</text>
    </g>

    <!-- Bottom Specs Footer -->
    <rect x="22" y="535" width="361" height="40" rx="6" fill="#121318" stroke="#27272a" stroke-width="1" />
    <text x="36" y="560" class="t-mono" fill="#a1a1aa">PostgreSQL 16 / RLS Policies / WAL CDC</text>
  </g>

  <!-- CONNECTOR 3: Database -> Storage -->
  <g transform="translate(1385, 485)">
    <line x1="0" y1="0" x2="40" y2="0" stroke="#3f3f46" stroke-width="1.5" stroke-dasharray="4 3" />
    <polygon points="40,-4 47,0 40,4" fill="#71717a" />
    
    <rect x="0" y="-24" width="46" height="18" rx="4" fill="#18181b" stroke="#27272a" stroke-width="1" />
    <text x="6" y="-12" class="t-bus">SYNC</text>
  </g>

  <!-- ========================================================================= -->
  <!-- CARD 4: STORAGE & MEDIA PIPELINE (x: 1435, y: 195)                        -->
  <!-- ========================================================================= -->
  <g transform="translate(1435, 195)">
    <rect width="405" height="595" rx="12" fill="url(#cardBg)" stroke="#27272a" stroke-width="1" />
    
    <!-- Card Header -->
    <rect x="22" y="22" width="40" height="40" rx="8" fill="#18181b" stroke="#27272a" stroke-width="1" />
    <g transform="translate(31, 31)">
      <path fill-rule="evenodd" clip-rule="evenodd" d="M5.948 1.5H18.052C18.9505 1.49997 19.6997 1.49995 20.2945 1.57991C20.9223 1.66432 21.4891 1.84999 21.9445 2.30546C22.4 2.76093 22.5857 3.32773 22.6701 3.95552C22.7501 4.5503 22.75 5.29953 22.75 6.19801V6.302C22.75 7.20048 22.7501 7.9497 22.6701 8.54448C22.5857 9.17228 22.4 9.73907 21.9445 10.1945C21.4891 10.65 20.9223 10.8357 20.2945 10.9201C19.6997 11.0001 18.9505 11 18.052 11H5.94801C5.04953 11 4.3003 11.0001 3.70552 10.9201C3.07773 10.8357 2.51093 10.65 2.05546 10.1945C1.59999 9.73907 1.41432 9.17228 1.32991 8.54448C1.24995 7.9497 1.24997 7.20048 1.25 6.302V6.198C1.24997 5.29952 1.24995 4.5503 1.32991 3.95552C1.41432 3.32773 1.59999 2.76093 2.05546 2.30546C2.51093 1.84999 3.07773 1.66432 3.70552 1.57991C4.3003 1.49995 5.04952 1.49997 5.948 1.5ZM3.90539 3.06654C3.44393 3.12858 3.24644 3.2358 3.11612 3.36612C2.9858 3.49643 2.87858 3.69393 2.81654 4.15539C2.7516 4.63843 2.75 5.28599 2.75 6.25C2.75 7.21401 2.7516 7.86157 2.81654 8.34461C2.87858 8.80607 2.9858 9.00357 3.11612 9.13388C3.24644 9.2642 3.44393 9.37142 3.90539 9.43347C4.38843 9.49841 5.03599 9.5 6 9.5H18C18.964 9.5 19.6116 9.49841 20.0946 9.43347C20.5561 9.37142 20.7536 9.2642 20.8839 9.13388C21.0142 9.00357 21.1214 8.80607 21.1835 8.34461C21.2484 7.86157 21.25 7.21401 21.25 6.25C21.25 5.28599 21.2484 4.63843 21.1835 4.15539C21.1214 3.69393 21.0142 3.49643 20.8839 3.36612C20.7536 3.2358 20.5561 3.12858 20.0946 3.06654C19.6116 3.00159 18.964 3 18 3H6C5.03599 3 4.38843 3.00159 3.90539 3.06654ZM5.25 6.25C5.25 5.83579 5.58579 5.5 6 5.5H8C8.41422 5.5 8.75 5.83579 8.75 6.25C8.75 6.66422 8.41422 7 8 7H6C5.58579 7 5.25 6.66422 5.25 6.25ZM10.25 6.25C10.25 5.83579 10.5858 5.5 11 5.5H18C18.4142 5.5 18.75 5.83579 18.75 6.25C18.75 6.66422 18.4142 7 18 7H11C10.5858 7 10.25 6.66422 10.25 6.25ZM5.94801 12.5H18.052C18.9505 12.5 19.6997 12.4999 20.2945 12.5799C20.9223 12.6643 21.4891 12.85 21.9445 13.3055C22.4 13.7609 22.5857 14.3277 22.6701 14.9555C22.7501 15.5503 22.75 16.2995 22.75 17.198V17.302C22.75 18.2005 22.7501 18.9497 22.6701 19.5445C22.5857 20.1723 22.4 20.7391 21.9445 21.1945C21.4891 21.65 20.9223 21.8357 20.2945 21.9201C19.6997 22.0001 18.9505 22 18.052 22H5.94801C5.04953 22 4.30031 22.0001 3.70552 21.9201C3.07773 21.8357 2.51093 21.65 2.05546 21.1945C1.59999 20.7391 1.41432 20.1723 1.32991 19.5445C1.24995 18.9497 1.24997 18.2005 1.25 17.302V17.198C1.24997 16.2995 1.24995 15.5503 1.32991 14.9555C1.41432 14.3277 1.59999 13.7609 2.05546 13.3055C2.51093 12.85 3.07773 12.6643 3.70552 12.5799C4.30031 12.4999 5.04953 12.5 5.94801 12.5ZM3.90539 14.0665C3.44393 14.1286 3.24644 14.2358 3.11612 14.3661C2.9858 14.4964 2.87858 14.6939 2.81654 15.1554C2.7516 15.6384 2.75 16.286 2.75 17.25C2.75 18.214 2.7516 18.8616 2.81654 19.3446C2.87858 19.8061 2.9858 20.0036 3.11612 20.1339C3.24644 20.2642 3.44393 20.3714 3.90539 20.4335C4.38843 20.4984 5.03599 20.5 6 20.5H18C18.964 20.5 19.6116 20.4984 20.0946 20.4335C20.5561 20.3714 20.7536 20.2642 20.8839 20.1339C21.0142 20.0036 21.1214 19.8061 21.1835 19.3446C21.2484 18.8616 21.25 18.214 21.25 17.25C21.25 16.286 21.2484 15.6384 21.1835 15.1554C21.1214 14.6939 21.0142 14.4964 20.8839 14.3661C20.7536 14.2358 20.5561 14.1286 20.0946 14.0665C19.6116 14.0016 18.964 14 18 14H6C5.03599 14 4.38843 14.0016 3.90539 14.0665ZM5.25 17.25C5.25 16.8358 5.58579 16.5 6 16.5H8C8.41422 16.5 8.75 16.8358 8.75 17.25C8.75 17.6642 8.41422 18 8 18H6C5.58579 18 5.25 17.6642 5.25 17.25ZM10.25 17.25C10.25 16.8358 10.5858 16.5 11 16.5H18C18.4142 16.5 18.75 16.8358 18.75 17.25C18.75 17.6642 18.4142 18 18 18H11C10.5858 18 10.25 17.6642 10.25 17.25Z" fill="currentColor"/>
    </g>
    <text x="74" y="39" class="t-card-h">Storage &amp; Transport</text>
    <text x="74" y="55" class="t-card-sub">Cloudflare R2 and Transactional SMTP</text>

    <line x1="22" y1="78" x2="383" y2="78" stroke="#27272a" stroke-width="1" />

    <!-- Feature 1 -->
    <g transform="translate(22, 102)">
      <circle cx="4" cy="6" r="3" fill="#71717a" />
      <text x="18" y="10" class="t-item-title">S3-Compatible Object Store</text>
      <text x="18" y="27" class="t-item-desc">Cloudflare R2 bucket for covers, avatars, and assets</text>
    </g>

    <!-- Feature 2 -->
    <g transform="translate(22, 162)">
      <circle cx="4" cy="6" r="3" fill="#71717a" />
      <text x="18" y="10" class="t-item-title">Direct SSL SMTP Delivery</text>
      <text x="18" y="27" class="t-item-desc">Nodemailer with Resend SMTP on port 465</text>
    </g>

    <!-- Feature 3 -->
    <g transform="translate(22, 222)">
      <circle cx="4" cy="6" r="3" fill="#71717a" />
      <text x="18" y="10" class="t-item-title">Edge CDN Distribution</text>
      <text x="18" y="27" class="t-item-desc">Global caching headers for static assets and attachments</text>
    </g>

    <!-- Feature 4 -->
    <g transform="translate(22, 282)">
      <circle cx="4" cy="6" r="3" fill="#71717a" />
      <text x="18" y="10" class="t-item-title">Circuit Breaker Resiliency</text>
      <text x="18" y="27" class="t-item-desc">Graceful fallback handling for mail delivery and bucket tasks</text>
    </g>

    <!-- Feature 5 -->
    <g transform="translate(22, 342)">
      <circle cx="4" cy="6" r="3" fill="#71717a" />
      <text x="18" y="10" class="t-item-title">Secure Password Recovery</text>
      <text x="18" y="27" class="t-item-desc">Cryptographic token verification with rate limiting</text>
    </g>

    <!-- Feature 6 -->
    <g transform="translate(22, 402)">
      <circle cx="4" cy="6" r="3" fill="#71717a" />
      <text x="18" y="10" class="t-item-title">Structured Data Export</text>
      <text x="18" y="27" class="t-item-desc">Full workspace backups available in CSV and JSON formats</text>
    </g>

    <!-- Bottom Specs Footer -->
    <rect x="22" y="535" width="361" height="40" rx="6" fill="#121318" stroke="#27272a" stroke-width="1" />
    <text x="36" y="560" class="t-mono" fill="#a1a1aa">Cloudflare R2 / Nodemailer / Resend SSL 465</text>
  </g>

  <!-- ========================================================================= -->
  <!-- BOTTOM DATA PIPELINE FLOW                                                 -->
  <!-- ========================================================================= -->
  <g transform="translate(80, 856)">
    <rect x="0" y="0" width="1760" height="44" rx="8" fill="#121318" stroke="#27272a" stroke-width="1" />
    
    <text x="24" y="27" class="t-kicker">DATA PIPELINE</text>
    
    <text x="150" y="27" class="t-mono" fill="#f4f4f5">Client View</text>
    <text x="240" y="27" class="t-mono" fill="#71717a">&gt;</text>
    <text x="265" y="27" class="t-mono" fill="#f4f4f5">Server Action / MCP</text>
    <text x="430" y="27" class="t-mono" fill="#71717a">&gt;</text>
    <text x="455" y="27" class="t-mono" fill="#10b981">Tenant RLS Guard</text>
    <text x="605" y="27" class="t-mono" fill="#71717a">&gt;</text>
    <text x="630" y="27" class="t-mono" fill="#f4f4f5">PostgreSQL 16 Engine</text>
    <text x="800" y="27" class="t-mono" fill="#71717a">&gt;</text>
    <text x="825" y="27" class="t-mono" fill="#f4f4f5">WebSocket CDC Sync</text>
    <text x="985" y="27" class="t-mono" fill="#71717a">&gt;</text>
    <text x="1010" y="27" class="t-mono" fill="#f4f4f5">R2 Storage &amp; SMTP Relay</text>

    <text x="1650" y="27" class="t-mono" fill="#71717a">Chrono Core</text>
  </g>
</svg>
